<svg viewBox="0 0 3000 594.9" xmlns="http://www.w3.org/2000/svg" preserveAspectRatio="xMinYMin"><g fill="currentColor"><path d="M552.6,205.9v373.8H391.3V257.2c0-94.8-58.8-124.2-113.3-124.2c-29.4,0-62.1,7.6-92.6,40.3l-6.5-4.3
        C201.7,50.1,278,0,368.4,0S552.6,49,552.6,205.9z"></path><path d="M1040.3,421.6l6.5,4.4C1025,545.9,952,594.9,862.7,594.9c-91.5,0-188.5-49-188.5-205.9V16.3h161.3v322.5
        c0,94.8,57.8,124.2,113.3,124.2C977.1,463.1,1009.8,454.4,1040.3,421.6z"></path><path d="M1901.7,205.9v373.8h-161.2V257.2c0-94.8-57.8-124.2-113.3-124.2c-28.3,0-61,7.6-91.5,40.3l-6.5-4.3
        C1551.9,50.1,1628.2,0,1718.6,0S1901.7,49,1901.7,205.9z"></path><rect y="16.3" width="161.3" height="563.4"></rect><rect x="1064.5" y="16.3" width="161.3" height="563.4"></rect><rect x="1350.2" y="16.3" width="161.3" height="563.4"></rect><path d="M2290.1,205.9v373.8h-161.3V257.2c0-94.8-58.8-124.2-113.3-124.2c-28.3,0-62.1,7.6-91.5,40.3l-6.5-4.3
        C1939.3,50.1,2016.6,0,2106,0C2197.5,0,2290.1,49,2290.1,205.9z"></path><path d="M2559.3,297.7c0,100.2,59.9,172,144.8,172c43.5,0,79.5-18.5,109.9-50.1l6.5,4.3
        c-17.4,125.2-99.1,170.9-184,170.9c-142.6,0-242.8-129.5-242.8-297.2S2494,0.5,2636.6,0.5c84.9,0,166.6,45.7,184,170.9l-6.5,4.4
        c-30.5-31.6-66.4-49-109.9-49C2619.2,126.8,2559.3,198.6,2559.3,297.7z"></path><rect x="2838.9" y="16.3" width="161.1" height="563.3"></rect></g></svg>
